<svg width="28" height="28" viewBox="0 0 28 28" fill="none" xmlns="http://www.w3.org/2000/svg">
  <path d="M27.5078 18.6119L18.6211 27.5073C18.293 27.8358 17.8874 28 17.4043 28C16.9212 28 16.5156 27.8358 16.1875 27.5073L0.492188 11.7967C0.164063 11.4682 0 10.7475 0 9.63441V1.75171C0 1.25904 0.173177 0.843923 0.519531 0.506354C0.865885 0.168785 1.27604 0 1.75 0H9.625C10.7552 0 11.4844 0.164223 11.8125 0.492669L27.5078 16.176C27.8359 16.5226 28 16.9332 28 17.4076C28 17.882 27.8359 18.2835 27.5078 18.6119ZM7 3.47605C6.03385 3.47605 5.20898 3.81818 4.52539 4.50244C3.8418 5.18671 3.5 6.01238 3.5 6.97947C3.5 7.94656 3.8418 8.77224 4.52539 9.4565C5.20898 10.1408 6.03385 10.4829 7 10.4829C7.96615 10.4829 8.79102 10.1408 9.47461 9.4565C10.1582 8.77224 10.5 7.94656 10.5 6.97947C10.5 6.01238 10.1582 5.18671 9.47461 4.50244C8.79102 3.81818 7.96615 3.47605 7 3.47605ZM11.0469 15.1085C10.8828 14.9443 10.6868 14.8622 10.459 14.8622C10.2311 14.8622 10.0352 14.9443 9.87109 15.1085C9.70703 15.2727 9.625 15.4734 9.625 15.7107C9.625 15.9479 9.70703 16.1486 9.87109 16.3128L16.9258 23.3744C17.0898 23.5386 17.2904 23.6207 17.5273 23.6207C17.7643 23.6207 17.9648 23.5386 18.1289 23.3744C18.293 23.2102 18.375 23.014 18.375 22.7859C18.375 22.5578 18.293 22.3617 18.1289 22.1975L11.0469 15.1085ZM12.4961 12.4809C12.332 12.6452 12.25 12.8459 12.25 13.0831C12.25 13.3203 12.332 13.521 12.4961 13.6852L19.5508 20.7468C19.7148 20.911 19.9154 20.9932 20.1523 20.9932C20.3893 20.9932 20.5898 20.911 20.7539 20.7468C20.918 20.5826 21 20.3864 21 20.1584C21 19.9303 20.918 19.7341 20.7539 19.5699L13.6719 12.4809C13.5078 12.3167 13.3118 12.2346 13.084 12.2346C12.8561 12.2346 12.6602 12.3167 12.4961 12.4809ZM23.3789 16.9423L16.2969 9.85337C16.1328 9.68915 15.9368 9.60704 15.709 9.60704C15.4811 9.60704 15.2852 9.68915 15.1211 9.85337C14.957 10.0176 14.875 10.2183 14.875 10.4555C14.875 10.6927 14.957 10.8935 15.1211 11.0577L22.1758 18.1193C22.3398 18.2835 22.5404 18.3656 22.7773 18.3656C23.0143 18.3656 23.2148 18.2835 23.3789 18.1193C23.543 17.955 23.625 17.7589 23.625 17.5308C23.625 17.3027 23.543 17.1066 23.3789 16.9423Z" fill="white"/>
</svg>