<svg width="28" height="28" viewBox="0 0 28 28" fill="none" xmlns="http://www.w3.org/2000/svg">
<path d="M24.1029 8.90816H25.4545C26.1296 8.90816 26.7771 9.17635 27.2545 9.65374C27.7318 10.1311 28 10.7786 28 11.4537V16.5449C28 17.22 27.7318 17.8675 27.2545 18.3449C26.7771 18.8223 26.1296 19.0905 25.4545 19.0905H24.1029C23.7926 21.5512 22.5951 23.814 20.735 25.4544C18.8748 27.0948 16.48 28 14 28V25.4544C16.0253 25.4544 17.9676 24.6498 19.3997 23.2177C20.8318 21.7855 21.6364 19.8431 21.6364 17.8177V10.1809C21.6364 8.15556 20.8318 6.21312 19.3997 4.78096C17.9676 3.34879 16.0253 2.54421 14 2.54421C11.9747 2.54421 10.0324 3.34879 8.60028 4.78096C7.16818 6.21312 6.36364 8.15556 6.36364 10.1809V19.0905H2.54545C1.87036 19.0905 1.22291 18.8223 0.745546 18.3449C0.268181 17.8675 0 17.22 0 16.5449V11.4537C0 10.7786 0.268181 10.1311 0.745546 9.65374C1.22291 9.17635 1.87036 8.90816 2.54545 8.90816H3.89709C4.20768 6.44772 5.40537 4.18518 7.26546 2.54507C9.12554 0.904957 11.5202 0 14 0C16.4798 0 18.8745 0.904957 20.7345 2.54507C22.5946 4.18518 23.7923 6.44772 24.1029 8.90816ZM2.54545 11.4537V16.5449H3.81818V11.4537H2.54545ZM24.1818 11.4537V16.5449H25.4545V11.4537H24.1818ZM8.60364 18.8168L9.95273 16.6582C11.1657 17.4181 12.5686 17.82 14 17.8177C15.4314 17.82 16.8343 17.4181 18.0473 16.6582L19.3964 18.8168C17.7791 19.8301 15.9085 20.3662 14 20.3633C12.0915 20.3662 10.2209 19.8301 8.60364 18.8168Z" fill="white"/>
</svg>