<svg width="40" height="40" viewBox="0 0 40 40" fill="none" xmlns="http://www.w3.org/2000/svg">
<path d="M0 7.22222C0 5.30677 0.76091 3.46977 2.11534 2.11534C3.46977 0.76091 5.30677 0 7.22222 0H20.5556C22.471 0 24.308 0.76091 25.6624 2.11534C27.0169 3.46977 27.7778 5.30677 27.7778 7.22222C27.7778 7.66425 27.6022 8.08817 27.2896 8.40073C26.9771 8.71329 26.5531 8.88889 26.1111 8.88889C25.6691 8.88889 25.2452 8.71329 24.9326 8.40073C24.62 8.08817 24.4444 7.66425 24.4444 7.22222C24.4444 6.19082 24.0347 5.20167 23.3054 4.47236C22.5761 3.74305 21.587 3.33333 20.5556 3.33333H7.22222C6.19082 3.33333 5.20167 3.74305 4.47236 4.47236C3.74305 5.20167 3.33333 6.19082 3.33333 7.22222V20.5556C3.33333 22.7022 5.07556 24.4444 7.22222 24.4444H20.2311C20.6334 23.0247 21.5356 21.7984 22.7713 20.9919C24.0069 20.1853 25.4926 19.8529 26.9542 20.056C28.4158 20.259 29.7546 20.9839 30.7235 22.0968C31.6925 23.2097 32.2262 24.6355 32.2262 26.1111C32.2262 27.5867 31.6925 29.0125 30.7235 30.1254C29.7546 31.2383 28.4158 31.9632 26.9542 32.1663C25.4926 32.3694 24.0069 32.0369 22.7713 31.2304C21.5356 30.4238 20.6334 29.1975 20.2311 27.7778H7.22222C5.30677 27.7778 3.46977 27.0169 2.11534 25.6624C0.76091 24.308 0 22.471 0 20.5556V7.22222ZM32.7778 15.5556C34.9244 15.5556 36.6667 17.2978 36.6667 19.4444V32.7778C36.6667 33.8092 36.2569 34.7983 35.5276 35.5276C34.7983 36.2569 33.8092 36.6667 32.7778 36.6667H19.4444C18.413 36.6667 17.4239 36.2569 16.6946 35.5276C15.9653 34.7983 15.5556 33.8092 15.5556 32.7778C15.5556 32.3358 15.38 31.9118 15.0674 31.5993C14.7548 31.2867 14.3309 31.1111 13.8889 31.1111C13.4469 31.1111 13.0229 31.2867 12.7104 31.5993C12.3978 31.9118 12.2222 32.3358 12.2222 32.7778C12.2222 34.6932 12.9831 36.5302 14.3376 37.8847C15.692 39.2391 17.529 40 19.4444 40H32.7778C34.6932 40 36.5302 39.2391 37.8847 37.8847C39.2391 36.5302 40 34.6932 40 32.7778V19.4444C40 17.529 39.2391 15.692 37.8847 14.3376C36.5302 12.9831 34.6932 12.2222 32.7778 12.2222H19.7689C19.3666 10.8025 18.4644 9.57622 17.2287 8.76964C15.9931 7.96307 14.5074 7.63065 13.0458 7.83373C11.5842 8.03681 10.2454 8.76168 9.27648 9.87457C8.30752 10.9875 7.7738 12.4133 7.7738 13.8889C7.7738 15.3645 8.30752 16.7903 9.27648 17.9032C10.2454 19.0161 11.5842 19.741 13.0458 19.9441C14.5074 20.1471 15.9931 19.8147 17.2287 19.0081C18.4644 18.2016 19.3666 16.9753 19.7689 15.5556H32.7778Z" fill="#F9ED32"/>
</svg>