<svg width="28" height="28" viewBox="0 0 28 28" fill="none" xmlns="http://www.w3.org/2000/svg">
<path d="M27.4205 13.7706L14.6986 0.306641C14.607 0.209437 14.4982 0.132319 14.3784 0.0797013C14.2586 0.0270838 14.1302 0 14.0006 0C13.8709 0 13.7425 0.0270838 13.6227 0.0797013C13.503 0.132319 13.3942 0.209437 13.3026 0.306641L0.580655 13.7706C0.210024 14.1631 0 14.6963 0 15.2524C0 16.4071 0.886425 17.3459 1.9767 17.3459H3.31715V26.9532C3.31715 27.5322 3.75881 28 4.30549 28H12.0239V20.6727H15.4831V28H23.6957C24.2423 28 24.684 27.5322 24.684 26.9532V17.3459H26.0245C26.5495 17.3459 27.053 17.1268 27.4236 16.731C28.1926 15.9132 28.1927 14.5884 27.4205 13.7706Z" fill="white"/>
</svg>