<svg width="40" height="37" viewBox="0 0 40 37" fill="none" xmlns="http://www.w3.org/2000/svg">
<path d="M34.5455 0C35.9921 0 37.3795 0.584731 38.4024 1.62556C39.4253 2.66638 40 4.07805 40 5.55V9.25H36.3636V31.45C36.3636 32.922 35.789 34.3336 34.766 35.3744C33.7431 36.4153 32.3557 37 30.9091 37H5.45455C4.00791 37 2.62053 36.4153 1.5976 35.3744C0.574674 34.3336 0 32.922 0 31.45V27.75H29.0909V31.45C29.091 31.9031 29.2545 32.3405 29.5504 32.6791C29.8463 33.0177 30.2541 33.234 30.6964 33.2871L30.9091 33.3C31.3544 33.2999 31.7842 33.1336 32.117 32.8325C32.4498 32.5314 32.6624 32.1165 32.7145 31.6665L32.7273 31.45V24.05H3.63636V5.55C3.63636 4.07805 4.21104 2.66638 5.23396 1.62556C6.25689 0.584731 7.64427 0 9.09091 0H34.5455Z" fill="#F9ED32"/>
</svg>